<?xml version="1.0" encoding="utf-8"?>
<!-- Generator: Adobe Illustrator 16.0.0, SVG Export Plug-In . SVG Version: 6.00 Build 0)  -->
<!DOCTYPE svg PUBLIC "-//W3C//DTD SVG 1.1//EN" "http://www.w3.org/Graphics/SVG/1.1/DTD/svg11.dtd">
<svg version="1.1" id="Layer_1" xmlns="http://www.w3.org/2000/svg" xmlns:xlink="http://www.w3.org/1999/xlink" x="0px" y="0px"
	 width="36px" height="36px" viewBox="0 0 28 36" enable-background="new 0 0 36 36" xml:space="preserve" fill="#4b2142">
<g>
	<rect x="2" y="6" width="2" height="24"/>
	<rect x="9" y="6" width="2" height="24"/>
	<rect x="5" y="6" width="3" height="24"/>
</g>
<polygon points="11.194,5 1.717,5 0.983,3 11.983,3 "/>
<rect x="1" width="11" height="2"/>
<polygon points="1.79,31 11.267,31 12,33 1,33 "/>
<rect x="1" y="34" width="11" height="2"/>
<path d="M14.688,22.188c-1.186,0-1.561,0.207-1.568,0.658c-0.01,0.687,1.412,0.682,1.849,0.686
	c8.297,0.078,13.938-5.75,13.326-13.655c-0.23-2.982-1.771-5.26-3-6.458C23.482,1.654,21.173,0,12,0c0,0.543,0,1.429,0,2
	c1.688,0,6-0.078,9.245,2.448c3.37,2.624,3.271,6.832,3.161,8.691C24.094,18.438,20.161,22.188,14.688,22.188z"/>
</svg>
